<svg width="378" height="157" viewBox="0 0 378 157" fill="none" xmlns="http://www.w3.org/2000/svg">
<path fill-rule="evenodd" clip-rule="evenodd" d="M80.8808 142.829H239.927C240.827 142.829 241.704 142.732 242.549 142.547C243.393 142.732 244.27 142.829 245.17 142.829H336.054C342.811 142.829 348.288 137.351 348.288 130.594C348.288 123.838 342.811 118.36 336.054 118.36H325.567C318.81 118.36 313.333 112.883 313.333 106.126C313.333 99.369 318.81 93.8915 325.567 93.8915H358.775C365.531 93.8915 371.009 88.414 371.009 81.6572C371.009 74.9003 365.531 69.4229 358.775 69.4229H320.324C327.081 69.4229 332.558 63.9454 332.558 57.1885C332.558 50.4317 327.081 44.9542 320.324 44.9542H208.467C215.224 44.9542 220.702 39.4767 220.702 32.7199C220.702 25.9631 215.224 20.4856 208.467 20.4856H108.845C102.088 20.4856 96.6107 25.9631 96.6107 32.7199C96.6107 39.4767 102.088 44.9542 108.845 44.9542H38.9346C32.1778 44.9542 26.7003 50.4317 26.7003 57.1885C26.7003 63.9454 32.1778 69.4229 38.9346 69.4229H82.6286C89.3854 69.4229 94.8629 74.9003 94.8629 81.6572C94.8629 88.414 89.3854 93.8915 82.6286 93.8915H12.7182C5.96138 93.8915 0.483887 99.369 0.483887 106.126C0.483887 112.883 5.96138 118.36 12.7182 118.36H80.8808C74.124 118.36 68.6465 123.838 68.6465 130.594C68.6465 137.351 74.124 142.829 80.8808 142.829ZM365.766 142.829C372.522 142.829 378 137.351 378 130.594C378 123.838 372.522 118.36 365.766 118.36C359.009 118.36 353.531 123.838 353.531 130.594C353.531 137.351 359.009 142.829 365.766 142.829Z" fill="#F3F7FF"/>
<path fill-rule="evenodd" clip-rule="evenodd" d="M168.476 104.914C168.339 105.881 168.269 106.869 168.269 107.874C168.269 119.457 177.659 128.847 189.242 128.847C200.825 128.847 210.215 119.457 210.215 107.874C210.215 106.869 210.144 105.881 210.008 104.914H260.9V151.568C260.9 154.463 258.553 156.811 255.657 156.811H122.827C119.931 156.811 117.584 154.463 117.584 151.568V104.914H168.476Z" fill="white"/>
<path fill-rule="evenodd" clip-rule="evenodd" d="M211.963 104.378C211.963 116.926 201.79 127.099 189.242 127.099C176.693 127.099 166.521 116.926 166.521 104.378C166.521 103.972 166.532 103.567 166.553 103.166H117.584L134.293 53.7609C135.013 51.631 137.012 50.1975 139.26 50.1975H239.224C241.472 50.1975 243.47 51.631 244.191 53.7609L260.9 103.166H211.931C211.952 103.567 211.963 103.972 211.963 104.378Z" fill="white"/>
<path fill-rule="evenodd" clip-rule="evenodd" d="M208.638 106.046C208.638 115.743 199.954 125.351 189.242 125.351C178.53 125.351 169.846 115.743 169.846 106.046C169.846 105.732 169.855 103.672 169.873 103.362H133.314L147.578 68.6809C148.193 67.0351 149.898 65.9274 151.818 65.9274H226.666C228.586 65.9274 230.291 67.0351 230.906 68.6809L245.17 103.362H208.611C208.629 103.672 208.638 105.732 208.638 106.046Z" fill="#E8F0FE"/>
<path fill-rule="evenodd" clip-rule="evenodd" d="M119.769 103.526V149.82C119.769 151.509 121.138 152.878 122.827 152.878H255.657C257.346 152.878 258.715 151.509 258.715 149.82V103.526L242.121 54.4609C241.701 53.2184 240.535 52.3822 239.224 52.3822H139.26C137.949 52.3822 136.783 53.2184 136.363 54.4609L119.769 103.526Z" stroke="#1F64E7" stroke-width="4.3694"/>
<path d="M142.053 102.63C148.933 102.63 156.358 102.63 164.328 102.63C167.607 102.63 167.607 104.935 167.607 106.126C167.607 117.709 177.213 127.099 189.063 127.099C200.912 127.099 210.518 117.709 210.518 106.126C210.518 104.935 210.518 102.63 213.797 102.63H257.405M129.073 102.63H133.314H129.073Z" stroke="#1F64E7" stroke-width="4.3694" stroke-linecap="round" stroke-linejoin="round"/>
<path d="M233.11 10.5282L213.711 32.2933M187.668 3.00806V32.2933V3.00806ZM142.052 10.5282L161.452 32.2933L142.052 10.5282Z" stroke="#75A4FE" stroke-width="4.3694" stroke-linecap="round" stroke-linejoin="round"/>
</svg>
