<svg width="708" height="355" viewBox="0 0 708 355" fill="none" xmlns="http://www.w3.org/2000/svg">
                <path fill-rule="evenodd" clip-rule="evenodd" d="M566.246 88.6838H608.316C610.126 97.7724 611.04 107.041 611.04 116.394C611.04 117.011 611.036 117.629 611.028 118.245H570.107C570.118 117.629 570.124 117.012 570.124 116.394C570.124 106.962 568.822 97.6441 566.246 88.6838ZM126.38 88.6838H168.453C165.877 97.6441 164.575 106.962 164.575 116.394C164.575 117.012 164.581 117.629 164.592 118.245H123.671C123.662 117.629 123.658 117.011 123.658 116.394C123.658 107.046 124.572 97.7676 126.38 88.6838ZM27.0449 88.6838H68.3032C69.726 98.9058 72.194 108.797 75.5953 118.245H32.6669C30.0369 108.671 28.1414 98.7954 27.0449 88.6838ZM707.555 88.6838C706.455 98.7956 704.556 108.671 701.923 118.245H659.103C662.505 108.797 664.973 98.9058 666.396 88.6838L707.555 88.6838Z" fill="white"/>
                <path fill-rule="evenodd" clip-rule="evenodd" d="M597.154 177.368C592.808 186.416 587.495 195.008 581.288 202.991C595.44 196.469 608.399 187.787 619.738 177.368H673.866C666.255 188.099 657.557 198.007 647.932 206.929H513.398L536.139 191.576C541.062 187.244 545.505 182.481 549.432 177.368H597.154ZM477.015 177.368H519.265C517.226 187.911 513.496 197.856 508.393 206.929H454.168C464.719 199.93 472.849 189.561 477.015 177.368ZM215.427 177.368H257.684C261.85 189.561 269.98 199.93 280.531 206.929H226.297C221.185 197.856 217.461 187.911 215.427 177.368ZM137.539 177.368H185.267C189.194 182.481 193.637 187.244 198.56 191.576L221.3 206.929H86.6087C76.9921 198.006 68.3009 188.098 60.6973 177.368H114.961C126.3 187.787 139.259 196.469 153.411 202.991C147.201 195.014 141.886 186.421 137.539 177.368ZM344.285 206.929H390.431C388.346 205.55 386.343 204.031 384.434 202.377C378.514 195.718 371.981 194.245 367.349 194.245C362.718 194.245 356.215 195.718 350.265 202.377C348.361 204.032 346.363 205.551 344.285 206.929Z" fill="white"/>
                <path fill-rule="evenodd" clip-rule="evenodd" d="M270.605 295.613L235.638 266.052H299.063L334.03 295.613H270.605ZM498.913 266.052L463.921 295.613H400.668L435.636 266.052H498.913Z" fill="white"/>
                <path fill-rule="evenodd" clip-rule="evenodd" d="M683.124 0.0740544L683.157 0.0613729L683.095 0L683.124 0.0740544ZM683.124 0.0740544C691.478 21.778 695.702 44.6448 695.702 68.0626C695.702 75.2895 695.295 82.4231 694.503 89.4418L694.533 89.1718C694.551 89.0092 694.569 88.8466 694.587 88.6839H653.427C654.363 81.9631 654.846 75.0994 654.846 68.1239C654.846 49.7428 651.503 31.7912 644.97 14.7909L683.124 0.0740544ZM688.955 118.245H646.135C637.925 141.051 624.279 161.28 606.77 177.368H660.898C660.787 177.524 660.675 177.681 660.564 177.837C673.285 160.013 682.999 139.899 688.955 118.245ZM598.06 118.245C597.788 138.976 592.959 159.101 584.185 177.368H536.463C549.412 160.505 556.741 139.832 557.138 118.245H598.06ZM491.946 212.657L500.43 206.929H634.964C601.19 238.236 556.015 257.398 506.454 257.398C502.313 257.398 498.295 258.411 494.614 260.129L486.272 265.775L485.945 266.052H422.667L437.84 253.225C428.792 255.956 419.253 257.459 409.346 257.459C389.623 257.459 370.545 251.598 354.381 240.735C338.217 251.598 319.139 257.459 299.416 257.459C289.509 257.459 279.939 255.956 270.922 253.225L286.095 266.052H222.669L222.306 265.745L214.424 260.405C210.559 258.533 206.449 257.459 202.216 257.459C151.913 257.459 106.129 237.72 72.1974 205.576C72.6759 206.03 73.1569 206.481 73.6402 206.929H208.332L216.816 212.657C215.543 210.716 214.336 208.729 213.199 206.698C213.242 206.775 213.285 206.852 213.329 206.929H267.562C276.7 212.991 287.653 216.524 299.416 216.524C310.954 216.524 322.115 213.105 331.581 206.753C331.493 206.812 331.405 206.87 331.316 206.929H377.462C386.868 213.152 397.922 216.524 409.346 216.524C421.296 216.524 432.41 212.877 441.634 206.638C441.49 206.736 441.345 206.833 441.2 206.929H495.424C494.327 208.88 493.167 210.79 491.946 212.657ZM257.637 295.613L310.765 340.528L311.869 341.387C323.739 350.102 337.849 354.736 352.602 354.736H356.007C370.791 354.736 384.869 350.102 396.77 341.387L450.953 295.613H387.7L372.14 308.767H372.109C367.355 312.081 361.804 313.861 355.976 313.861H352.755C346.928 313.861 341.345 312.112 336.622 308.767L321.062 295.613H257.637ZM101.992 177.368H47.7288C35.1804 159.659 25.5941 139.708 19.6984 118.245H62.6269C70.8365 141.051 84.4831 161.28 101.992 177.368ZM172.299 177.368H124.57C115.801 159.105 110.974 138.971 110.702 118.245H151.624C152.021 139.832 159.35 160.505 172.299 177.368ZM244.716 177.368H202.459C201.293 171.328 200.682 165.092 200.682 158.71C200.682 148.154 202.339 137.782 205.621 127.84L244.513 140.636C242.581 146.436 241.63 152.512 241.63 158.71C241.63 165.236 242.716 171.512 244.716 177.368ZM506.297 177.368H464.046C466.046 171.512 467.132 165.236 467.132 158.71C467.132 152.512 466.151 146.436 464.249 140.636L503.141 127.84C506.423 137.782 508.08 148.154 508.08 158.71C508.08 165.092 507.466 171.328 506.297 177.368ZM14.0765 88.6839H55.3348C55.4014 89.1625 55.4703 89.6404 55.5415 90.1175C54.4707 82.9402 53.9157 75.5961 53.9157 68.1239C53.9157 49.7121 57.2283 31.7912 63.7922 14.7909L25.5746 0.0613729C17.201 21.7567 12.9683 44.6795 12.9683 68.1239C12.9683 75.0698 13.3441 81.9296 14.0765 88.6839ZM113.412 88.6839H155.484C155.59 88.315 155.699 87.9468 155.809 87.5792L116.61 75.8262C115.342 80.059 114.275 84.3493 113.412 88.6839ZM553.278 88.6839H595.347C594.485 84.3538 593.419 80.0644 592.152 75.8262L552.953 87.5792C553.063 87.9468 553.172 88.315 553.278 88.6839Z" fill="white"/>
                <path fill-rule="evenodd" clip-rule="evenodd" d="M553.278 88.6838H595.347C597.157 97.7724 598.072 107.041 598.072 116.394C598.072 117.011 598.068 117.629 598.06 118.245H557.138C557.15 117.629 557.155 117.012 557.155 116.394C557.155 106.962 555.854 97.6441 553.278 88.6838ZM113.412 88.6838H155.484C152.908 97.6441 151.607 106.962 151.607 116.394C151.607 117.012 151.613 117.629 151.624 118.245H110.702C110.694 117.629 110.69 117.011 110.69 116.394C110.69 107.046 111.604 97.7676 113.412 88.6838ZM14.0767 88.6838H55.335C56.7578 98.9058 59.2258 108.797 62.627 118.245H19.6986C17.0687 108.671 15.1731 98.7954 14.0767 88.6838ZM694.587 88.6838C693.487 98.7956 691.588 108.671 688.955 118.245H646.135C649.536 108.797 652.005 98.9058 653.427 88.6838L694.587 88.6838Z" fill="white"/>
                <path fill-rule="evenodd" clip-rule="evenodd" d="M584.185 177.368C579.84 186.416 574.526 195.008 568.32 202.991C582.472 196.469 595.431 187.787 606.77 177.368H660.898C653.287 188.099 644.588 198.007 634.964 206.929H500.43L523.171 191.576C528.094 187.244 532.537 182.481 536.464 177.368H584.185ZM464.046 177.368H506.297C504.257 187.911 500.528 197.856 495.425 206.929H441.2C451.75 199.93 459.881 189.561 464.046 177.368ZM202.459 177.368H244.716C248.881 189.561 257.012 199.93 267.563 206.929H213.329C208.217 197.856 204.493 187.911 202.459 177.368ZM124.57 177.368H172.299C176.225 182.481 180.669 187.244 185.592 191.576L208.332 206.929H73.6404C64.0238 198.006 55.3326 188.098 47.729 177.368H101.992C113.332 187.787 126.291 196.469 140.442 202.991C134.233 195.014 128.917 186.421 124.57 177.368ZM331.317 206.929H377.463C375.378 205.55 373.374 204.031 371.466 202.377C365.546 195.718 359.013 194.245 354.381 194.245C349.75 194.245 343.247 195.718 337.297 202.377C335.393 204.032 333.395 205.551 331.317 206.929Z" fill="white"/>
                <path fill-rule="evenodd" clip-rule="evenodd" d="M257.637 295.613L222.669 266.052H286.095L321.062 295.613H257.637ZM485.945 266.052L450.953 295.613H387.7L422.668 266.052H485.945Z" fill="white"/>
                <path fill-rule="evenodd" clip-rule="evenodd" d="M670.156 0.0740544L670.188 0.0613729L670.127 0L670.156 0.0740544ZM670.156 0.0740544C678.51 21.778 682.733 44.6448 682.733 68.0626C682.733 75.2895 682.326 82.4231 681.534 89.4418L681.565 89.1718C681.583 89.0092 681.601 88.8466 681.618 88.6839H640.459C641.394 81.9631 641.878 75.0994 641.878 68.1239C641.878 49.7428 638.535 31.7912 632.001 14.7909L670.156 0.0740544ZM675.986 118.245H633.167C624.957 141.051 611.311 161.28 593.802 177.368H647.929C647.818 177.524 647.707 177.681 647.596 177.837C660.317 160.013 670.03 139.899 675.986 118.245ZM585.091 118.245C584.82 138.976 579.99 159.101 571.217 177.368H523.495C536.444 160.505 543.773 139.832 544.17 118.245H585.091ZM478.978 212.657L487.462 206.929H621.995C588.221 238.236 543.047 257.398 493.486 257.398C489.345 257.398 485.327 258.411 481.646 260.129L473.303 265.775L472.976 266.052H409.699L424.872 253.225C415.824 255.956 406.284 257.459 396.377 257.459C376.655 257.459 357.577 251.598 341.413 240.735C325.248 251.598 306.17 257.459 286.448 257.459C276.541 257.459 266.971 255.956 257.954 253.225L273.126 266.052H209.701L209.338 265.745L201.455 260.405C197.591 258.533 193.48 257.459 189.248 257.459C138.945 257.459 93.1607 237.72 59.2291 205.576C59.7077 206.03 60.1886 206.481 60.6719 206.929H195.364L203.848 212.657C202.575 210.716 201.368 208.729 200.231 206.698C200.274 206.775 200.317 206.852 200.361 206.929H254.594C263.732 212.991 274.684 216.524 286.448 216.524C297.986 216.524 309.147 213.105 318.613 206.753C318.525 206.812 318.436 206.87 318.348 206.929H364.494C373.9 213.152 384.953 216.524 396.377 216.524C408.328 216.524 419.442 212.877 428.666 206.638C428.522 206.736 428.377 206.833 428.231 206.929H482.456C481.359 208.88 480.199 210.79 478.978 212.657ZM244.668 295.613L297.797 340.528L298.901 341.387C310.771 350.102 324.88 354.736 339.634 354.736H343.038C357.822 354.736 371.901 350.102 383.802 341.387L437.985 295.613H374.732L359.172 308.767H359.141C354.387 312.081 348.835 313.861 343.008 313.861H339.787C333.959 313.861 328.377 312.112 323.653 308.767L308.094 295.613H244.668ZM89.0238 177.368H34.7605C22.2122 159.659 12.6258 139.708 6.73019 118.245H49.6586C57.8682 141.051 71.5148 161.28 89.0238 177.368ZM159.33 177.368H111.602C102.833 159.105 98.0055 138.971 97.7339 118.245H138.656C139.052 139.832 146.381 160.505 159.33 177.368ZM231.748 177.368H189.49C188.325 171.328 187.714 165.092 187.714 158.71C187.714 148.154 189.37 137.782 192.652 127.84L231.545 140.636C229.612 146.436 228.662 152.512 228.662 158.71C228.662 165.236 229.747 171.512 231.748 177.368ZM493.329 177.368H451.078C453.078 171.512 454.164 165.236 454.164 158.71C454.164 152.512 453.182 146.436 451.281 140.636L490.173 127.84C493.455 137.782 495.111 148.154 495.111 158.71C495.111 165.092 494.497 171.328 493.329 177.368ZM1.10822 88.6839H42.3665C42.4331 89.1625 42.5021 89.6404 42.5732 90.1175C41.5024 82.9402 40.9474 75.5961 40.9474 68.1239C40.9474 49.7121 44.26 31.7912 50.8239 14.7909L12.6063 0.0613729C4.23277 21.7567 0 44.6795 0 68.1239C0 75.0698 0.375816 81.9296 1.10822 88.6839ZM100.444 88.6839H142.516C142.622 88.315 142.73 87.9468 142.841 87.5792L103.641 75.8262C102.373 80.059 101.307 84.3493 100.444 88.6839ZM540.309 88.6839H582.379C581.516 84.3538 580.451 80.0644 579.184 75.8262L539.985 87.5792C540.095 87.9468 540.203 88.315 540.309 88.6839Z" fill="white"/>
                <path fill-rule="evenodd" clip-rule="evenodd" d="M566.246 88.6838H608.316C610.126 97.7724 611.04 107.041 611.04 116.394C611.04 117.011 611.036 117.629 611.028 118.245H570.107C570.118 117.629 570.124 117.012 570.124 116.394C570.124 106.962 568.822 97.6441 566.246 88.6838ZM126.38 88.6838H168.453C165.877 97.6441 164.575 106.962 164.575 116.394C164.575 117.012 164.581 117.629 164.592 118.245H123.671C123.662 117.629 123.658 117.011 123.658 116.394C123.658 107.046 124.572 97.7676 126.38 88.6838ZM27.0449 88.6838H68.3032C69.726 98.9058 72.194 108.797 75.5953 118.245H32.6669C30.0369 108.671 28.1414 98.7954 27.0449 88.6838ZM707.555 88.6838C706.455 98.7956 704.556 108.671 701.923 118.245H659.103C662.505 108.797 664.973 98.9058 666.396 88.6838L707.555 88.6838Z" fill="#B34FFF" style="mix-blend-mode:multiply"/>
                <path fill-rule="evenodd" clip-rule="evenodd" d="M597.154 177.368C592.808 186.416 587.495 195.008 581.288 202.991C595.44 196.469 608.399 187.787 619.738 177.368H673.866C666.255 188.099 657.557 198.007 647.932 206.929H513.398L536.139 191.576C541.062 187.244 545.505 182.481 549.432 177.368H597.154ZM477.015 177.368H519.265C517.226 187.911 513.496 197.856 508.393 206.929H454.168C464.719 199.93 472.849 189.561 477.015 177.368ZM215.427 177.368H257.684C261.85 189.561 269.98 199.93 280.531 206.929H226.297C221.185 197.856 217.461 187.911 215.427 177.368ZM137.539 177.368H185.267C189.194 182.481 193.637 187.244 198.56 191.576L221.3 206.929H86.6087C76.9921 198.006 68.3009 188.098 60.6973 177.368H114.961C126.3 187.787 139.259 196.469 153.411 202.991C147.201 195.014 141.886 186.421 137.539 177.368ZM344.285 206.929H390.431C388.346 205.55 386.343 204.031 384.434 202.377C378.514 195.718 371.981 194.245 367.349 194.245C362.718 194.245 356.215 195.718 350.265 202.377C348.361 204.032 346.363 205.551 344.285 206.929Z" fill="#B34FFF" style="mix-blend-mode:multiply"/>
                <path fill-rule="evenodd" clip-rule="evenodd" d="M270.605 295.613L235.638 266.052H299.063L334.03 295.613H270.605ZM498.913 266.052L463.921 295.613H400.668L435.636 266.052H498.913Z" fill="#B34FFF" style="mix-blend-mode:multiply"/>
                <path fill-rule="evenodd" clip-rule="evenodd" d="M683.124 0.0740544L683.157 0.0613729L683.095 0L683.124 0.0740544ZM683.124 0.0740544C691.478 21.778 695.702 44.6448 695.702 68.0626C695.702 75.2895 695.295 82.4231 694.503 89.4418L694.533 89.1718C694.551 89.0092 694.569 88.8466 694.587 88.6839H653.427C654.363 81.9631 654.846 75.0994 654.846 68.1239C654.846 49.7428 651.503 31.7912 644.97 14.7909L683.124 0.0740544ZM688.955 118.245H646.135C637.925 141.051 624.279 161.28 606.77 177.368H660.898C660.787 177.524 660.675 177.681 660.564 177.837C673.285 160.013 682.999 139.899 688.955 118.245ZM598.06 118.245C597.788 138.976 592.959 159.101 584.185 177.368H536.463C549.412 160.505 556.741 139.832 557.138 118.245H598.06ZM491.946 212.657L500.43 206.929H634.964C601.19 238.236 556.015 257.398 506.454 257.398C502.313 257.398 498.295 258.411 494.614 260.129L486.272 265.775L485.945 266.052H422.667L437.84 253.225C428.792 255.956 419.253 257.459 409.346 257.459C389.623 257.459 370.545 251.598 354.381 240.735C338.217 251.598 319.139 257.459 299.416 257.459C289.509 257.459 279.939 255.956 270.922 253.225L286.095 266.052H222.669L222.306 265.745L214.424 260.405C210.559 258.533 206.449 257.459 202.216 257.459C151.913 257.459 106.129 237.72 72.1974 205.576C72.6759 206.03 73.1569 206.481 73.6402 206.929H208.332L216.816 212.657C215.543 210.716 214.336 208.729 213.199 206.698C213.242 206.775 213.285 206.852 213.329 206.929H267.562C276.7 212.991 287.653 216.524 299.416 216.524C310.954 216.524 322.115 213.105 331.581 206.753C331.493 206.812 331.405 206.87 331.316 206.929H377.462C386.868 213.152 397.922 216.524 409.346 216.524C421.296 216.524 432.41 212.877 441.634 206.638C441.49 206.736 441.345 206.833 441.2 206.929H495.424C494.327 208.88 493.167 210.79 491.946 212.657ZM257.637 295.613L310.765 340.528L311.869 341.387C323.739 350.102 337.849 354.736 352.602 354.736H356.007C370.791 354.736 384.869 350.102 396.77 341.387L450.953 295.613H387.7L372.14 308.767H372.109C367.355 312.081 361.804 313.861 355.976 313.861H352.755C346.928 313.861 341.345 312.112 336.622 308.767L321.062 295.613H257.637ZM101.992 177.368H47.7288C35.1804 159.659 25.5941 139.708 19.6984 118.245H62.6269C70.8365 141.051 84.4831 161.28 101.992 177.368ZM172.299 177.368H124.57C115.801 159.105 110.974 138.971 110.702 118.245H151.624C152.021 139.832 159.35 160.505 172.299 177.368ZM244.716 177.368H202.459C201.293 171.328 200.682 165.092 200.682 158.71C200.682 148.154 202.339 137.782 205.621 127.84L244.513 140.636C242.581 146.436 241.63 152.512 241.63 158.71C241.63 165.236 242.716 171.512 244.716 177.368ZM506.297 177.368H464.046C466.046 171.512 467.132 165.236 467.132 158.71C467.132 152.512 466.151 146.436 464.249 140.636L503.141 127.84C506.423 137.782 508.08 148.154 508.08 158.71C508.08 165.092 507.466 171.328 506.297 177.368ZM14.0765 88.6839H55.3348C55.4014 89.1625 55.4703 89.6404 55.5415 90.1175C54.4707 82.9402 53.9157 75.5961 53.9157 68.1239C53.9157 49.7121 57.2283 31.7912 63.7922 14.7909L25.5746 0.0613729C17.201 21.7567 12.9683 44.6795 12.9683 68.1239C12.9683 75.0698 13.3441 81.9296 14.0765 88.6839ZM113.412 88.6839H155.484C155.59 88.315 155.699 87.9468 155.809 87.5792L116.61 75.8262C115.342 80.059 114.275 84.3493 113.412 88.6839ZM553.278 88.6839H595.347C594.485 84.3538 593.419 80.0644 592.152 75.8262L552.953 87.5792C553.063 87.9468 553.172 88.315 553.278 88.6839Z" fill="#B34FFF" style="mix-blend-mode:multiply"/>
                <path fill-rule="evenodd" clip-rule="evenodd" d="M553.278 88.6838H595.347C597.157 97.7724 598.072 107.041 598.072 116.394C598.072 117.011 598.068 117.629 598.06 118.245H557.138C557.15 117.629 557.155 117.012 557.155 116.394C557.155 106.962 555.854 97.6441 553.278 88.6838ZM113.412 88.6838H155.484C152.908 97.6441 151.607 106.962 151.607 116.394C151.607 117.012 151.613 117.629 151.624 118.245H110.702C110.694 117.629 110.69 117.011 110.69 116.394C110.69 107.046 111.604 97.7676 113.412 88.6838ZM14.0767 88.6838H55.335C56.7578 98.9058 59.2258 108.797 62.627 118.245H19.6986C17.0687 108.671 15.1731 98.7954 14.0767 88.6838ZM694.587 88.6838C693.487 98.7956 691.588 108.671 688.955 118.245H646.135C649.536 108.797 652.005 98.9058 653.427 88.6838L694.587 88.6838Z" fill="#4DE6FF" style="mix-blend-mode:multiply"/>
                <path fill-rule="evenodd" clip-rule="evenodd" d="M584.185 177.368C579.84 186.416 574.526 195.008 568.32 202.991C582.472 196.469 595.431 187.787 606.77 177.368H660.898C653.287 188.099 644.588 198.007 634.964 206.929H500.43L523.171 191.576C528.094 187.244 532.537 182.481 536.464 177.368H584.185ZM464.046 177.368H506.297C504.257 187.911 500.528 197.856 495.425 206.929H441.2C451.75 199.93 459.881 189.561 464.046 177.368ZM202.459 177.368H244.716C248.881 189.561 257.012 199.93 267.563 206.929H213.329C208.217 197.856 204.493 187.911 202.459 177.368ZM124.57 177.368H172.299C176.225 182.481 180.669 187.244 185.592 191.576L208.332 206.929H73.6404C64.0238 198.006 55.3326 188.098 47.729 177.368H101.992C113.332 187.787 126.291 196.469 140.442 202.991C134.233 195.014 128.917 186.421 124.57 177.368ZM331.317 206.929H377.463C375.378 205.55 373.374 204.031 371.466 202.377C365.546 195.718 359.013 194.245 354.381 194.245C349.75 194.245 343.247 195.718 337.297 202.377C335.393 204.032 333.395 205.551 331.317 206.929Z" fill="#4DE6FF" style="mix-blend-mode:multiply"/>
                <path fill-rule="evenodd" clip-rule="evenodd" d="M257.637 295.613L222.669 266.052H286.095L321.062 295.613H257.637ZM485.945 266.052L450.953 295.613H387.7L422.668 266.052H485.945Z" fill="#4DE6FF" style="mix-blend-mode:multiply"/>
                <path fill-rule="evenodd" clip-rule="evenodd" d="M670.156 0.0740544L670.188 0.0613729L670.127 0L670.156 0.0740544ZM670.156 0.0740544C678.51 21.778 682.733 44.6448 682.733 68.0626C682.733 75.2895 682.326 82.4231 681.534 89.4418L681.565 89.1718C681.583 89.0092 681.601 88.8466 681.618 88.6839H640.459C641.394 81.9631 641.878 75.0994 641.878 68.1239C641.878 49.7428 638.535 31.7912 632.001 14.7909L670.156 0.0740544ZM675.986 118.245H633.167C624.957 141.051 611.311 161.28 593.802 177.368H647.929C647.818 177.524 647.707 177.681 647.596 177.837C660.317 160.013 670.03 139.899 675.986 118.245ZM585.091 118.245C584.82 138.976 579.99 159.101 571.217 177.368H523.495C536.444 160.505 543.773 139.832 544.17 118.245H585.091ZM478.978 212.657L487.462 206.929H621.995C588.221 238.236 543.047 257.398 493.486 257.398C489.345 257.398 485.327 258.411 481.646 260.129L473.303 265.775L472.976 266.052H409.699L424.872 253.225C415.824 255.956 406.284 257.459 396.377 257.459C376.655 257.459 357.577 251.598 341.413 240.735C325.248 251.598 306.17 257.459 286.448 257.459C276.541 257.459 266.971 255.956 257.954 253.225L273.126 266.052H209.701L209.338 265.745L201.455 260.405C197.591 258.533 193.48 257.459 189.248 257.459C138.945 257.459 93.1607 237.72 59.2291 205.576C59.7077 206.03 60.1886 206.481 60.6719 206.929H195.364L203.848 212.657C202.575 210.716 201.368 208.729 200.231 206.698C200.274 206.775 200.317 206.852 200.361 206.929H254.594C263.732 212.991 274.684 216.524 286.448 216.524C297.986 216.524 309.147 213.105 318.613 206.753C318.525 206.812 318.436 206.87 318.348 206.929H364.494C373.9 213.152 384.953 216.524 396.377 216.524C408.328 216.524 419.442 212.877 428.666 206.638C428.522 206.736 428.377 206.833 428.231 206.929H482.456C481.359 208.88 480.199 210.79 478.978 212.657ZM244.668 295.613L297.797 340.528L298.901 341.387C310.771 350.102 324.88 354.736 339.634 354.736H343.038C357.822 354.736 371.901 350.102 383.802 341.387L437.985 295.613H374.732L359.172 308.767H359.141C354.387 312.081 348.835 313.861 343.008 313.861H339.787C333.959 313.861 328.377 312.112 323.653 308.767L308.094 295.613H244.668ZM89.0238 177.368H34.7605C22.2122 159.659 12.6258 139.708 6.73019 118.245H49.6586C57.8682 141.051 71.5148 161.28 89.0238 177.368ZM159.33 177.368H111.602C102.833 159.105 98.0055 138.971 97.7339 118.245H138.656C139.052 139.832 146.381 160.505 159.33 177.368ZM231.748 177.368H189.49C188.325 171.328 187.714 165.092 187.714 158.71C187.714 148.154 189.37 137.782 192.652 127.84L231.545 140.636C229.612 146.436 228.662 152.512 228.662 158.71C228.662 165.236 229.747 171.512 231.748 177.368ZM493.329 177.368H451.078C453.078 171.512 454.164 165.236 454.164 158.71C454.164 152.512 453.182 146.436 451.281 140.636L490.173 127.84C493.455 137.782 495.111 148.154 495.111 158.71C495.111 165.092 494.497 171.328 493.329 177.368ZM1.10822 88.6839H42.3665C42.4331 89.1625 42.5021 89.6404 42.5732 90.1175C41.5024 82.9402 40.9474 75.5961 40.9474 68.1239C40.9474 49.7121 44.26 31.7912 50.8239 14.7909L12.6063 0.0613729C4.23277 21.7567 0 44.6795 0 68.1239C0 75.0698 0.375816 81.9296 1.10822 88.6839ZM100.444 88.6839H142.516C142.622 88.315 142.73 87.9468 142.841 87.5792L103.641 75.8262C102.373 80.059 101.307 84.3493 100.444 88.6839ZM540.309 88.6839H582.379C581.516 84.3538 580.451 80.0644 579.184 75.8262L539.985 87.5792C540.095 87.9468 540.203 88.315 540.309 88.6839Z" fill="#4DE6FF" style="mix-blend-mode:multiply"/>
            </svg>