<svg width="48" height="48" viewBox="0 0 48 48" fill="none" xmlns="http://www.w3.org/2000/svg">
<path d="M24 48C37.2548 48 48 37.2548 48 24C48 10.7452 37.2548 0 24 0C10.7452 0 0 10.7452 0 24C0 37.2548 10.7452 48 24 48Z" fill="black"/>
<path d="M17.4852 13.7493C18.4487 13.7493 19.3163 13.8311 20.1092 14.0053C20.8985 14.1724 21.5741 14.4497 22.143 14.8337C22.7047 15.2177 23.1421 15.7262 23.4549 16.3697C23.7607 17.0026 23.9136 17.7955 23.9136 18.7306C23.9136 19.744 23.6825 20.5902 23.2239 21.2657C22.7616 21.9413 22.079 22.496 21.1687 22.9262C22.4061 23.2817 23.3234 23.9075 23.9314 24.7999C24.543 25.6959 24.8416 26.7697 24.8416 28.0284C24.8416 29.0488 24.6461 29.927 24.2549 30.6666C23.8603 31.4133 23.3234 32.0213 22.6621 32.487C21.9972 32.9599 21.2292 33.3048 20.3723 33.5288C19.5261 33.7528 18.6443 33.8666 17.7412 33.8666H7.98828V13.7457H17.4745L17.4852 13.7493ZM16.9127 21.8773C17.6985 21.8773 18.3492 21.6924 18.8612 21.3119C19.3696 20.9386 19.6185 20.3271 19.6185 19.4808C19.6185 19.0115 19.5367 18.6275 19.3732 18.3253C19.2025 18.0231 18.975 17.7884 18.6905 17.6248C18.4061 17.4542 18.0861 17.3368 17.7163 17.2728C17.3501 17.2017 16.9696 17.1733 16.5785 17.1733H12.4327V21.8737H16.9163L16.9127 21.8773ZM17.1581 30.4426C17.5954 30.4426 18.0114 30.4035 18.399 30.3146C18.7936 30.2293 19.1456 30.0906 19.4443 29.8879C19.7394 29.6924 19.9847 29.4257 20.1625 29.0844C20.3403 28.7466 20.4256 28.3093 20.4256 27.7795C20.4256 26.7413 20.1341 26.0053 19.5545 25.5573C18.975 25.1164 18.1998 24.8959 17.2434 24.8959H12.4256V30.4355H17.1545L17.1581 30.4426Z" fill="white"/>
<path d="M31.1605 30.375C31.7579 30.9617 32.6254 31.2533 33.749 31.2533C34.5561 31.2533 35.253 31.0506 35.8396 30.6417C36.4192 30.2364 36.7712 29.8026 36.9099 29.351H40.4334C39.8681 31.1039 39.0076 32.3555 37.8343 33.1092C36.6752 33.8666 35.2636 34.2435 33.6174 34.2435C32.469 34.2435 31.4379 34.0586 30.5099 33.6924C29.5819 33.3226 28.8103 32.8035 28.1561 32.1279C27.5196 31.4488 27.029 30.6453 26.677 29.6995C26.3285 28.7608 26.1543 27.719 26.1543 26.5955C26.1543 25.4719 26.3356 24.487 26.6912 23.5484C27.0539 22.6062 27.5552 21.7919 28.2165 21.1057C28.8778 20.4195 29.6636 19.879 30.5774 19.4808C31.4912 19.0862 32.501 18.887 33.6174 18.887C34.8512 18.887 35.9285 19.1253 36.8565 19.6088C37.7774 20.0853 38.5347 20.7324 39.1285 21.5395C39.7223 22.3466 40.1454 23.2675 40.4085 24.3057C40.6716 25.3368 40.7605 26.4177 40.6859 27.5484H30.1721C30.1721 28.7004 30.5632 29.7919 31.1641 30.375H31.1605ZM35.7579 22.7199C35.2814 22.1937 34.4779 21.9092 33.493 21.9092C32.853 21.9092 32.3232 22.0159 31.9001 22.2364C31.4876 22.4533 31.1463 22.7235 30.8867 23.0399C30.6272 23.3635 30.453 23.7012 30.3498 24.0675C30.2467 24.4195 30.1863 24.743 30.1685 25.0275H36.6787C36.5827 24.007 36.2343 23.2533 35.7579 22.7235V22.7199Z" fill="white"/>
<path d="M37.5061 15.0968H29.3496V17.0844H37.5061V15.0968Z" fill="white"/>
</svg>
