<svg width="27" height="27" viewBox="0 0 27 27" fill="none" xmlns="http://www.w3.org/2000/svg">
<path fill-rule="evenodd" clip-rule="evenodd" d="M26.5473 1.14603C26.9378 1.53655 26.9378 2.16972 26.5473 2.56024L2.57234 26.5352C2.18182 26.9257 1.54865 26.9257 1.15813 26.5352C0.767603 26.1447 0.767603 25.5115 1.15813 25.121L25.1331 1.14603C25.5236 0.755503 26.1568 0.755503 26.5473 1.14603Z" fill="#111111"/>
<path fill-rule="evenodd" clip-rule="evenodd" d="M1.14355 1.13543C1.53412 0.744942 2.16728 0.745008 2.55777 1.13557L26.5528 25.1356C26.9432 25.5261 26.9432 26.1593 26.5526 26.5498C26.1621 26.9403 25.5289 26.9402 25.1384 26.5496L1.14341 2.54964C0.752922 2.15907 0.752988 1.52591 1.14355 1.13543Z" fill="#111111"/>
</svg>
