<svg fill="none" height="304" viewBox="0 0 585 304" width="585" xmlns="http://www.w3.org/2000/svg"><path d="m574.251.0525952-32.721 12.6228048c5.598 14.5689 8.463 29.953 8.463 45.7052 0 51.2274-30.434 95.4344-74.14 115.5774 16.373-21.064 25.493-47.072 25.493-74.2113 0-11.8339-1.708-23.51-5.072-34.7654l-33.588 10.072c2.392 7.9682 3.6 16.2782 3.6 24.6934 0 24.6933-10.591 48.1243-29.119 64.4293l-26.755 18.066c8.699-13.306 13.824-29.164 13.824-46.231 0-9.046-1.419-17.935-4.231-26.455l-33.325 10.966c1.629 4.97 2.47 10.177 2.47 15.489 0 27.323-22.208 49.545-49.514 49.545-11.958 0-23.443-4.313-32.458-12.123-5.072-5.707-10.67-6.969-14.639-6.969-3.968 0-9.54 1.262-14.638 6.969-9.015 7.836-20.5 12.123-32.458 12.123-27.307 0-49.514-22.222-49.514-49.545 0-5.312.814-10.519 2.47-15.489l-33.325-10.966c-2.812 8.52-4.231 17.409-4.231 26.455 0 17.067 5.098 32.925 13.824 46.231l-26.755-18.066c-18.528-16.305-29.12-39.736-29.12-64.4293 0-8.4152 1.209-16.7252 3.601-24.6934l-33.5878-10.072c-3.364 11.2291-5.0723 22.9315-5.0723 34.7654 0 27.1393 9.1197 53.1733 25.4931 74.2113-43.7062-20.143-74.1402-64.35-74.1402-115.5774 0-15.7785 2.8384-31.1363 8.4627-45.7052l-32.7468-12.6228048c-7.17485 18.5924048-10.8017 38.2367048-10.8017 58.3280048 0 89.4644 72.7472 162.2564 162.157 162.2564 3.627 0 7.148.92 10.46 2.524l6.754 4.576 75.796 64.087.946.737c10.171 7.468 22.261 11.439 34.902 11.439h2.917c12.668 0 24.731-3.971 34.928-11.439l76.69-64.798 7.148-4.838c3.154-1.473 6.597-2.341 10.145-2.341 89.41 0 162.157-72.792 162.157-162.256 0-20.0913-3.627-39.7093-10.802-58.328zm-266.521 264.5534048c-4.074 2.84-8.83 4.366-13.824 4.366h-2.759c-4.994 0-9.777-1.499-13.825-4.366l-56.295-47.598c7.727 2.34 15.927 3.629 24.416 3.629 16.899 0 33.246-5.023 47.096-14.332 13.851 9.309 30.198 14.332 47.097 14.332 8.489 0 16.662-1.289 24.415-3.629l-56.295 47.598z" fill="#f1f1f1"/></svg>