<svg width="196" height="103" viewBox="0 0 196 103" fill="none" xmlns="http://www.w3.org/2000/svg">
<path d="M192.399 0.0178201L181.436 4.29464C183.311 9.2308 184.271 14.4432 184.271 19.7803C184.271 37.137 174.074 52.1148 159.431 58.9399C164.917 51.8029 167.972 42.9909 167.972 33.7958C167.972 29.7862 167.4 25.8302 166.273 22.0167L155.02 25.4292C155.821 28.129 156.226 30.9446 156.226 33.7958C156.226 42.1623 152.677 50.1011 146.469 55.6253L137.506 61.7465C140.42 57.2381 142.137 51.8653 142.137 46.0827C142.137 43.0177 141.662 40.0061 140.72 37.1192L129.554 40.8347C130.1 42.5187 130.382 44.2829 130.382 46.0827C130.382 55.3402 122.941 62.8692 113.793 62.8692C109.786 62.8692 105.938 61.408 102.918 58.7617C101.218 56.8282 99.3428 56.4005 98.0132 56.4005C96.6836 56.4005 94.8168 56.8282 93.1086 58.7617C90.0883 61.4169 86.2403 62.8692 82.2339 62.8692C73.085 62.8692 65.6445 55.3402 65.6445 46.0827C65.6445 44.2829 65.9174 42.5187 66.4722 40.8347L55.3069 37.1192C54.3647 40.0061 53.8892 43.0177 53.8892 46.0827C53.8892 51.8653 55.5975 57.2381 58.5209 61.7465L49.5569 55.6253C43.3491 50.1011 39.8005 42.1623 39.8005 33.7958C39.8005 30.9446 40.2056 28.129 41.0069 25.4292L29.7535 22.0167C28.6264 25.8213 28.0541 29.7862 28.0541 33.7958C28.0541 42.9909 31.1096 51.8118 36.5954 58.9399C21.9519 52.1148 11.7552 37.137 11.7552 19.7803C11.7552 14.4343 12.7062 9.2308 14.5906 4.29464L3.61903 0.0178201C1.21515 6.31721 0 12.973 0 19.7803C0 50.0922 24.3734 74.7552 54.3295 74.7552C55.5446 74.7552 56.7246 75.067 57.834 75.6105L60.097 77.1609L85.4919 98.8746L85.8089 99.1241C89.2166 101.655 93.2671 103 97.5025 103H98.4799C102.724 103 106.766 101.655 110.182 99.1241L135.877 77.1698L138.272 75.5304C139.328 75.0314 140.482 74.7374 141.671 74.7374C171.627 74.7374 196 50.0744 196 19.7625C196 12.9552 194.785 6.3083 192.381 0L192.399 0.0178201ZM103.103 89.6528C101.738 90.6151 100.144 91.1318 98.4711 91.1318H97.5465C95.8735 91.1318 94.2709 90.624 92.9149 89.6528L74.0536 73.5256C76.6424 74.3186 79.3897 74.7552 82.2339 74.7552C87.8958 74.7552 93.3727 73.0534 98.0132 69.8992C102.654 73.0534 108.131 74.7552 113.793 74.7552C116.637 74.7552 119.375 74.3186 121.973 73.5256L103.112 89.6528H103.103Z" fill="#375EE1"/>
</svg>
