<svg fill="none" height="45" viewBox="0 0 86 45" width="86" xmlns="http://www.w3.org/2000/svg"><path d="m84.4198.00778547-4.8102 1.86851453c.8229 2.15657 1.2441 4.43382 1.2441 6.76557 0 7.58303-4.4741 14.12673-10.8993 17.10853 2.4071-3.118 3.7477-6.968 3.7477-10.9853 0-1.7517-.2511-3.4801-.7456-5.14615l-4.9377 1.49095c.3516 1.1795.5293 2.4096.5293 3.6552 0 3.6553-1.557 7.1237-4.2809 9.5372l-3.9331 2.6743c1.2788-1.9697 2.0322-4.317 2.0322-6.8434 0-1.3391-.2086-2.6548-.622-3.9161l-4.8991 1.6233c.2396.7357.3632 1.5065.3632 2.2928 0 4.0446-3.2647 7.3339-7.279 7.3339-1.758 0-3.4464-.6384-4.7716-1.7945-.7457-.8447-1.5686-1.0316-2.152-1.0316s-1.4025.1869-2.152 1.0316c-1.3253 1.16-3.0136 1.7945-4.7716 1.7945-4.0143 0-7.279-3.2893-7.279-7.3339 0-.7863.1198-1.5571.3632-2.2928l-4.8991-1.6233c-.4134 1.2613-.622 2.577-.622 3.9161 0 2.5264.7495 4.8737 2.0322 6.8434l-3.9331-2.6743c-2.7239-2.4135-4.2809-5.8819-4.2809-9.5372 0-1.2456.1777-2.4757.5293-3.6552l-4.9377-1.49095c-.4945 1.66215-.7457 3.39445-.7457 5.14615 0 4.0173 1.3407 7.8711 3.7477 10.9853-6.42513-2.9818-10.89919-9.5255-10.89919-17.10853 0-2.33564.41727-4.609 1.24408-6.76557l-4.81405-1.86851453c-1.054762 2.75216453-1.58794 5.66003453-1.58794 8.63408453 0 13.24303 10.6945 24.01813 23.8384 24.01813.5332 0 1.0509.1363 1.5378.3737l.9929.6774 11.1426 9.4866.1391.109c1.4953 1.1055 3.2725 1.6933 5.1309 1.6933h.4289c1.8622 0 3.6356-.5878 5.1347-1.6933l11.274-9.5917 1.0509-.7163c.4636-.218.9698-.3465 1.4914-.3465 13.1439 0 23.8384-10.775 23.8384-24.01812 0-2.97404-.5332-5.87802-1.5879-8.63408zm-39.1808 39.16091453c-.5989.4204-1.2982.6462-2.0323.6462h-.4057c-.7341 0-1.4372-.2219-2.0322-.6462l-8.2759-7.0459c1.1359.3465 2.3414.5372 3.5893.5372 2.4843 0 4.8875-.7435 6.9236-2.1215 2.0361 1.378 4.4393 2.1215 6.9236 2.1215 1.2479 0 2.4495-.1907 3.5893-.5372l-8.2759 7.0459z" fill="#111"/></svg>