<svg width="1176" height="661" viewBox="0 0 1176 661" fill="none" xmlns="http://www.w3.org/2000/svg">
<rect width="1176" height="661" fill="#F0F0F0"/>
<path d="M869.251 179.053L836.53 191.675C842.128 206.244 844.993 221.628 844.993 237.381C844.993 288.608 814.559 332.815 770.853 352.958C787.226 331.894 796.346 305.886 796.346 278.747C796.346 266.913 794.638 255.237 791.274 243.981L757.686 254.053C760.078 262.021 761.286 270.331 761.286 278.747C761.286 303.44 750.695 326.871 732.167 343.176L705.412 361.242C714.111 347.936 719.236 332.078 719.236 315.011C719.236 305.965 717.817 297.076 715.005 288.556L681.68 299.522C683.309 304.492 684.15 309.699 684.15 315.011C684.15 342.334 661.942 364.556 634.636 364.556C622.678 364.556 611.193 360.243 602.178 352.433C597.106 346.726 591.508 345.464 587.539 345.464C583.571 345.464 577.999 346.726 572.901 352.433C563.886 360.269 552.401 364.556 540.443 364.556C513.136 364.556 490.929 342.334 490.929 315.011C490.929 309.699 491.743 304.492 493.399 299.522L460.074 288.556C457.262 297.076 455.843 305.965 455.843 315.011C455.843 332.078 460.941 347.936 469.667 361.242L442.912 343.176C424.384 326.871 413.792 303.44 413.792 278.747C413.792 270.331 415.001 262.021 417.393 254.053L383.805 243.981C380.441 255.21 378.733 266.913 378.733 278.747C378.733 305.886 387.853 331.92 404.226 352.958C360.52 332.815 330.086 288.608 330.086 237.381C330.086 221.602 332.924 206.244 338.548 191.675L305.802 179.053C298.627 197.645 295 217.289 295 237.381C295 326.845 367.747 399.637 457.157 399.637C460.784 399.637 464.305 400.557 467.617 402.161L474.371 406.737L550.167 470.824L551.113 471.561C561.284 479.029 573.374 483 586.015 483H588.932C601.6 483 613.663 479.029 623.86 471.561L700.55 406.763L707.698 401.925C710.852 400.452 714.295 399.584 717.843 399.584C807.253 399.584 880 326.792 880 237.328C880 217.237 876.373 197.619 869.198 179L869.251 179.053ZM602.73 443.606C598.656 446.446 593.9 447.972 588.906 447.972H586.147C581.153 447.972 576.37 446.473 572.322 443.606L516.027 396.008C523.754 398.348 531.954 399.637 540.443 399.637C557.342 399.637 573.689 394.614 587.539 385.304C601.39 394.614 617.737 399.637 634.636 399.637C643.125 399.637 651.298 398.348 659.051 396.008L602.756 443.606H602.73Z" fill="#E1E1E1"/>
</svg>
