<svg fill="none" height="48" viewBox="0 0 48 48" width="48" xmlns="http://www.w3.org/2000/svg"><g stroke="#f1f1f1" stroke-linecap="round" stroke-linejoin="round" stroke-width="2"><path clip-rule="evenodd" d="m30.877 24.9962c0-3.4737-2.8169-6.2905-6.2906-6.2905s-6.2905 2.8168-6.2905 6.2905 2.8168 6.2905 6.2905 6.2905 6.2906-2.8168 6.2906-6.2905z" fill-rule="evenodd"/><path clip-rule="evenodd" d="m24.5854 40.4002c16.0905 0 18.0063-4.8211 18.0063-15.2674 0-7.3221-.9684-11.24-7.0673-12.9242-.56-.1768-1.1811-.5137-1.6842-1.0673-.8127-.8906-1.4064-3.62531-3.3685-4.45268-1.9621-.82526-9.8421-.78737-11.7726 0-1.9284.78948-2.5558 3.56208-3.3684 4.45268-.5032.5536-1.1221.8905-1.6842 1.0673-6.09898 1.6842-7.0674 5.6021-7.0674 12.9242 0 10.4463 1.91579 15.2674 18.0063 15.2674z" fill-rule="evenodd"/><path d="m34.409 18h.018"/></g></svg>