<svg width="48" height="48" viewBox="0 0 48 48" fill="none" xmlns="http://www.w3.org/2000/svg">
<path d="M24 48C37.2548 48 48 37.2548 48 24C48 10.7452 37.2548 0 24 0C10.7452 0 0 10.7452 0 24C0 37.2548 10.7452 48 24 48Z" fill="url(#paint0_linear_705_269)"/>
<path d="M16.2496 25.753L19.0976 33.6356C19.0976 33.6356 19.4532 34.3716 19.8336 34.3716C20.2141 34.3716 25.8852 28.4729 25.8852 28.4729L32.1892 16.2952L16.3492 23.7192L16.2461 25.753H16.2496Z" fill="#C8DAEA"/>
<path d="M20.0219 27.7725L19.4743 33.5822C19.4743 33.5822 19.2467 35.3636 21.0245 33.5822C22.8059 31.8009 24.509 30.4285 24.509 30.4285L20.0219 27.7725Z" fill="#A9C6D8"/>
<path d="M16.2982 26.0338L10.4422 24.1245C10.4422 24.1245 9.74175 23.84 9.9693 23.1965C10.0155 23.0649 10.108 22.9511 10.3889 22.7556C11.6866 21.8525 34.4102 13.6818 34.4102 13.6818C34.4102 13.6818 35.0502 13.4649 35.4306 13.6107C35.6049 13.6747 35.7151 13.7493 35.8075 14.0231C35.8431 14.1227 35.8609 14.3325 35.8573 14.5387C35.8573 14.688 35.836 14.8302 35.8218 15.0471C35.6831 17.28 31.5409 33.9449 31.5409 33.9449C31.5409 33.9449 31.292 34.9191 30.4066 34.9547C30.0831 34.9653 29.6884 34.9014 29.2191 34.496C27.4769 32.9956 21.4538 28.9494 20.124 28.0605C20.0493 28.0107 20.028 27.9467 20.0138 27.8827C19.996 27.7903 20.0955 27.6729 20.0955 27.6729C20.0955 27.6729 30.5809 18.3538 30.8582 17.376C30.8795 17.3013 30.7977 17.2622 30.6875 17.2942C29.9906 17.5502 17.9195 25.1734 16.5862 26.016C16.508 26.0658 16.2911 26.0338 16.2911 26.0338H16.2982Z" fill="white"/>
<defs>
<linearGradient id="paint0_linear_705_269" x1="24" y1="48" x2="24" y2="0" gradientUnits="userSpaceOnUse">
<stop stop-color="#1D93D2"/>
<stop offset="1" stop-color="#38B0E3"/>
</linearGradient>
</defs>
</svg>
