<svg width="48" height="48" viewBox="0 0 48 48" fill="none" xmlns="http://www.w3.org/2000/svg">
<path d="M24 48C37.2548 48 48 37.2548 48 24C48 10.7452 37.2548 0 24 0C10.7452 0 0 10.7452 0 24C0 37.2548 10.7452 48 24 48Z" fill="url(#paint0_linear_705_265)"/>
<path fill-rule="evenodd" clip-rule="evenodd" d="M35.5449 12.7502C32.672 9.8738 28.8462 8.28802 24.7751 8.28802C16.384 8.28802 9.55377 15.1147 9.55022 23.5058C9.55022 26.1867 10.2507 28.8071 11.584 31.1147L9.42578 39.0009L17.4969 36.8854C19.7191 38.0978 22.2258 38.7378 24.7715 38.7378H24.7787C33.1698 38.7378 40 31.9111 40.0036 23.5165C40.0036 19.4489 38.4213 15.6267 35.5484 12.7502H35.5449ZM24.7751 36.1671H24.7715C22.4995 36.1671 20.2738 35.5556 18.3324 34.4036L17.8702 34.1298L13.0809 35.3849L14.3609 30.7165L14.0587 30.2365C12.7929 28.224 12.1244 25.8951 12.1244 23.5058C12.1244 16.5298 17.8027 10.8551 24.7858 10.8551C28.1671 10.8551 31.3422 12.1742 33.7316 14.5636C36.1209 16.9565 37.4365 20.1316 37.4329 23.5129C37.4329 30.4889 31.7547 36.1636 24.7787 36.1636L24.7751 36.1671ZM31.7156 26.6916C31.3351 26.4996 29.4649 25.5822 29.1165 25.4542C28.768 25.3262 28.5155 25.2622 28.2595 25.6462C28.0071 26.0267 27.2782 26.8836 27.0542 27.136C26.8338 27.3885 26.6098 27.4205 26.2293 27.232C25.8489 27.04 24.6222 26.6418 23.1715 25.344C22.0409 24.3342 21.2764 23.0898 21.056 22.7094C20.8355 22.3289 21.0311 22.1227 21.2231 21.9342C21.3938 21.7636 21.6035 21.4898 21.792 21.2694C21.9804 21.0489 22.0444 20.8889 22.1724 20.6365C22.3004 20.384 22.2365 20.16 22.1405 19.9716C22.0445 19.7796 21.2835 17.9094 20.9671 17.1485C20.6578 16.4054 20.3449 16.5085 20.1102 16.4942C19.8898 16.4836 19.6338 16.48 19.3813 16.48C19.1289 16.48 18.7164 16.576 18.368 16.9565C18.0195 17.3369 17.0382 18.2578 17.0382 20.128C17.0382 21.9982 18.4 23.808 18.592 24.0605C18.7804 24.3129 21.2729 28.1565 25.0916 29.8027C25.9982 30.1938 26.7093 30.4285 27.2604 30.6027C28.1707 30.8907 29.0027 30.8516 29.6569 30.752C30.3893 30.6418 31.9076 29.8311 32.224 28.9422C32.5404 28.0534 32.5404 27.2925 32.4444 27.1325C32.3484 26.9725 32.096 26.88 31.7156 26.688V26.6916Z" fill="white"/>
<defs>
<linearGradient id="paint0_linear_705_265" x1="24" y1="44.512" x2="24" y2="-3.488" gradientUnits="userSpaceOnUse">
<stop stop-color="#78CD51"/>
<stop offset="1" stop-color="#A0FC84"/>
</linearGradient>
</defs>
</svg>
